# xmcd CD database file
#
# Track frame offsets:
#	150
#	17470
#	29727
#	48752
#	63080
#	80610
#	98437
#	111592
#	123055
#	142875
#	157647
#	170617
#	185015
#	198582
#	210525
#	240655
#
# Disc length: 3415 seconds
#
# Revision: 4
# Processed by: cddbd v1.5.2PL0 Copyright (c) Steve Scherf et al.
# Submitted via: CDex 1.51
#
DISCID=ca0d5510
DTITLE=Graeme Allwright - Vol.3 - Message 
DYEAR=1994
DGENRE=Folksong
TTITLE0=Diamants dans la mine [1973]
TTITLE1=Vagabonde [1973]
TTITLE2=Les soeurs de la miséricorde [1971]
TTITLE3=La mer immense  (The Water is wide)   [1966]
TTITLE4=Dommage [1966]
TTITLE5=Johnny [Olympia1979]
TTITLE6=Viendras-tu avec moi ¿ [1968]
TTITLE7=Deux jeunes frères (Two brothers)  [1966]
TTITLE8=Message  (Poème vietnamien de Nhat Hanh) [1978]
TTITLE9=Dans la fumée de mon cigare [1978]
TTITLE10=Identity [1978]
TTITLE11=Comment faire pour te chanter ¿ [1978]
TTITLE12=Mache média [1978]
TTITLE13=La rivière Taniers [1978]
TTITLE14=La réunion [1978]
TTITLE15=Bonne chance [1978]
EXTD=YEAR: 1994
EXTT0=
EXTT1=
EXTT2=
EXTT3=
EXTT4=
EXTT5=
EXTT6=
EXTT7=
EXTT8=
EXTT9=
EXTT10=
EXTT11=
EXTT12=
EXTT13=
EXTT14=
EXTT15=
PLAYORDER=
